STARTFONT 2.3
FONT -FontForge-Indie Flower-Book-R-Normal--11-110-72-72-P-50-ISO10646-1
SIZE 11 72 72  2
FONTBOUNDINGBOX 14 17 -2 -6
COMMENT "Generated by fontforge, http://fontforge.sourceforge.net"
COMMENT "Copyright (c) 2010, Kimberly Geswein (kimberlygeswein.com)"
STARTPROPERTIES 40
FOUNDRY "FontForge"
FAMILY_NAME "Indie Flower"
WEIGHT_NAME "Book"
SLANT "R"
SETWIDTH_NAME "Normal"
ADD_STYLE_NAME ""
PIXEL_SIZE 11
POINT_SIZE 110
RESOLUTION_X 72
RESOLUTION_Y 72
SPACING "P"
AVERAGE_WIDTH 50
CHARSET_REGISTRY "ISO10646"
CHARSET_ENCODING "1"
FONTNAME_REGISTRY ""
CHARSET_COLLECTIONS "ISO8859-2 ISO8859-9 ISO8859-4 ISO10646-1"
BITS_PER_PIXEL 2
FONT_NAME "IndieFlower"
FACE_NAME "Indie Flower"
COPYRIGHT "Copyright (c) 2010, Kimberly Geswein (kimberlygeswein.com)"
FONT_VERSION "1.001 2010"
FONT_ASCENT 9
FONT_DESCENT 2
UNDERLINE_POSITION -1
UNDERLINE_THICKNESS 1
X_HEIGHT 3
CAP_HEIGHT 5
RAW_ASCENT 799
RAW_DESCENT 200
NORM_SPACE 4
RELATIVE_WEIGHT 40
RELATIVE_SETWIDTH 50
SUPERSCRIPT_X 0
SUPERSCRIPT_Y 5
SUPERSCRIPT_SIZE 7
SUBSCRIPT_X 0
SUBSCRIPT_Y 1
SUBSCRIPT_SIZE 7
AVG_LOWERCASE_WIDTH 50
AVG_UPPERCASE_WIDTH 59
ENDPROPERTIES
CHARS 356
STARTCHAR space
ENCODING 32
SWIDTH 375 0
DWIDTH 4 0
BBX 1 1 0 0
BITMAP
00
ENDCHAR
STARTCHAR exclam
ENCODING 33
SWIDTH 149 0
DWIDTH 2 0
BBX 2 9 0 0
BITMAP
80
80
80
80
80
80
00
00
90
ENDCHAR
STARTCHAR quotedbl
ENCODING 34
SWIDTH 234 0
DWIDTH 3 0
BBX 3 4 0 5
BITMAP
50
94
94
10
ENDCHAR
STARTCHAR numbersign
ENCODING 35
SWIDTH 768 0
DWIDTH 8 0
BBX 8 5 0 0
BITMAP
0110
1BB9
527A
1A60
0020
ENDCHAR
STARTCHAR dollar
ENCODING 36
SWIDTH 581 0
DWIDTH 6 0
BBX 6 10 0 0
BITMAP
0240
0280
1A80
0A40
0680
0690
4610
6A20
0B60
0600
ENDCHAR
STARTCHAR percent
ENCODING 37
SWIDTH 636 0
DWIDTH 7 0
BBX 7 7 0 0
BITMAP
0010
6450
8840
6610
0558
0848
14A0
ENDCHAR
STARTCHAR ampersand
ENCODING 38
SWIDTH 457 0
DWIDTH 5 0
BBX 5 8 0 0
BITMAP
1400
1C00
1800
1540
2600
5A00
8900
A500
ENDCHAR
STARTCHAR quotesingle
ENCODING 39
SWIDTH 102 0
DWIDTH 1 0
BBX 1 3 0 5
BITMAP
40
80
40
ENDCHAR
STARTCHAR parenleft
ENCODING 40
SWIDTH 421 0
DWIDTH 5 0
BBX 4 8 0 -1
BITMAP
01
09
20
50
80
80
64
14
ENDCHAR
STARTCHAR parenright
ENCODING 41
SWIDTH 290 0
DWIDTH 3 0
BBX 3 8 0 -1
BITMAP
50
24
08
08
08
14
60
40
ENDCHAR
STARTCHAR asterisk
ENCODING 42
SWIDTH 412 0
DWIDTH 5 0
BBX 4 5 0 2
BITMAP
01
2E
7D
5A
04
ENDCHAR
STARTCHAR plus
ENCODING 43
SWIDTH 459 0
DWIDTH 5 0
BBX 5 5 0 0
BITMAP
0400
0800
6E40
0800
0800
ENDCHAR
STARTCHAR comma
ENCODING 44
SWIDTH 130 0
DWIDTH 1 0
BBX 1 4 0 -2
BITMAP
40
80
80
80
ENDCHAR
STARTCHAR hyphen
ENCODING 45
SWIDTH 375 0
DWIDTH 4 0
BBX 4 2 0 2
BITMAP
55
50
ENDCHAR
STARTCHAR period
ENCODING 46
SWIDTH 204 0
DWIDTH 2 0
BBX 2 2 0 0
BITMAP
60
60
ENDCHAR
STARTCHAR slash
ENCODING 47
SWIDTH 309 0
DWIDTH 3 0
BBX 3 8 0 0
BITMAP
04
08
08
14
20
20
50
80
ENDCHAR
STARTCHAR zero
ENCODING 48
SWIDTH 430 0
DWIDTH 5 0
BBX 5 5 0 0
BITMAP
2900
4200
8140
4140
2A00
ENDCHAR
STARTCHAR one
ENCODING 49
SWIDTH 318 0
DWIDTH 4 0
BBX 4 6 0 0
BITMAP
05
0C
2C
88
08
04
ENDCHAR
STARTCHAR two
ENCODING 50
SWIDTH 497 0
DWIDTH 5 0
BBX 5 6 0 0
BITMAP
0640
0480
0080
0080
9600
6A80
ENDCHAR
STARTCHAR three
ENCODING 51
SWIDTH 430 0
DWIDTH 5 0
BBX 5 6 0 0
BITMAP
6900
0200
2C00
0600
4140
2A00
ENDCHAR
STARTCHAR four
ENCODING 52
SWIDTH 412 0
DWIDTH 5 0
BBX 5 7 0 0
BITMAP
5000
8000
8140
8200
6B00
0200
0140
ENDCHAR
STARTCHAR five
ENCODING 53
SWIDTH 571 0
DWIDTH 6 0
BBX 6 8 0 0
BITMAP
0140
0950
0400
2900
0180
0050
4050
6A80
ENDCHAR
STARTCHAR six
ENCODING 54
SWIDTH 440 0
DWIDTH 5 0
BBX 5 7 0 0
BITMAP
0240
1800
2000
A900
8140
8140
6A00
ENDCHAR
STARTCHAR seven
ENCODING 55
SWIDTH 412 0
DWIDTH 5 0
BBX 5 6 0 0
BITMAP
6900
0500
0900
1A40
0800
0800
ENDCHAR
STARTCHAR eight
ENCODING 56
SWIDTH 375 0
DWIDTH 4 0
BBX 4 7 0 0
BITMAP
10
68
88
34
55
52
29
ENDCHAR
STARTCHAR nine
ENCODING 57
SWIDTH 300 0
DWIDTH 3 0
BBX 3 7 0 0
BITMAP
68
88
9C
2C
08
08
08
ENDCHAR
STARTCHAR colon
ENCODING 58
SWIDTH 84 0
DWIDTH 1 0
BBX 1 1 0 3
BITMAP
40
ENDCHAR
STARTCHAR semicolon
ENCODING 59
SWIDTH 128 0
DWIDTH 1 0
BBX 1 6 0 -2
BITMAP
40
00
40
40
80
80
ENDCHAR
STARTCHAR less
ENCODING 60
SWIDTH 487 0
DWIDTH 5 0
BBX 5 5 0 0
BITMAP
0040
0640
1400
A000
5A40
ENDCHAR
STARTCHAR equal
ENCODING 61
SWIDTH 524 0
DWIDTH 6 0
BBX 6 4 0 1
BITMAP
1540
5550
0000
6A80
ENDCHAR
STARTCHAR greater
ENCODING 62
SWIDTH 403 0
DWIDTH 4 0
BBX 5 5 0 0
BITMAP
6000
0A40
0200
1800
5000
ENDCHAR
STARTCHAR question
ENCODING 63
SWIDTH 272 0
DWIDTH 3 0
BBX 3 10 0 0
BITMAP
50
58
08
18
20
20
24
00
00
04
ENDCHAR
STARTCHAR at
ENCODING 64
SWIDTH 815 0
DWIDTH 9 0
BBX 9 10 0 0
BITMAP
06A000
140900
500240
416480
451480
482440
442A00
228000
080000
02AA00
ENDCHAR
STARTCHAR A
ENCODING 65
SWIDTH 562 0
DWIDTH 6 0
BBX 6 9 0 0
BITMAP
0500
2540
1080
4050
4020
A560
4020
5020
5020
ENDCHAR
STARTCHAR B
ENCODING 66
SWIDTH 741 0
DWIDTH 8 0
BBX 8 8 0 0
BITMAP
1A40
5860
0820
05D0
0518
0202
0202
06A9
ENDCHAR
STARTCHAR C
ENCODING 67
SWIDTH 515 0
DWIDTH 6 0
BBX 5 7 0 0
BITMAP
0A40
2000
4000
4000
8000
4000
2A80
ENDCHAR
STARTCHAR D
ENCODING 68
SWIDTH 741 0
DWIDTH 8 0
BBX 8 7 0 0
BITMAP
6A80
0224
0205
0142
0142
0145
06A8
ENDCHAR
STARTCHAR E
ENCODING 69
SWIDTH 524 0
DWIDTH 6 0
BBX 5 7 0 0
BITMAP
6A80
8000
8140
A500
8000
8000
6A80
ENDCHAR
STARTCHAR F
ENCODING 70
SWIDTH 514 0
DWIDTH 6 0
BBX 7 7 0 0
BITMAP
5A50
6454
1000
2A40
1900
0800
0800
ENDCHAR
STARTCHAR G
ENCODING 71
SWIDTH 571 0
DWIDTH 6 0
BBX 6 7 0 -1
BITMAP
0190
1800
5000
8160
4020
2960
0010
ENDCHAR
STARTCHAR H
ENCODING 72
SWIDTH 524 0
DWIDTH 6 0
BBX 6 7 0 0
BITMAP
4040
8040
4080
5A80
A040
1050
1050
ENDCHAR
STARTCHAR I
ENCODING 73
SWIDTH 167 0
DWIDTH 2 0
BBX 2 6 0 0
BITMAP
40
80
50
50
20
20
ENDCHAR
STARTCHAR J
ENCODING 74
SWIDTH 439 0
DWIDTH 5 0
BBX 5 8 0 0
BITMAP
0100
0140
0140
0040
4080
4080
1080
0640
ENDCHAR
STARTCHAR K
ENCODING 75
SWIDTH 468 0
DWIDTH 5 0
BBX 5 7 0 0
BITMAP
0100
8900
A400
5000
6000
5900
5180
ENDCHAR
STARTCHAR L
ENCODING 76
SWIDTH 346 0
DWIDTH 4 0
BBX 4 6 0 0
BITMAP
40
80
80
80
80
69
ENDCHAR
STARTCHAR M
ENCODING 77
SWIDTH 534 0
DWIDTH 6 0
BBX 6 7 0 0
BITMAP
4040
60C0
6AC0
5040
5050
5050
5020
ENDCHAR
STARTCHAR N
ENCODING 78
SWIDTH 609 0
DWIDTH 7 0
BBX 7 6 0 0
BITMAP
4000
5020
A020
A414
8814
8290
ENDCHAR
STARTCHAR O
ENCODING 79
SWIDTH 609 0
DWIDTH 7 0
BBX 7 6 0 0
BITMAP
0400
6640
8060
8014
5014
1A90
ENDCHAR
STARTCHAR P
ENCODING 80
SWIDTH 627 0
DWIDTH 7 0
BBX 7 7 0 0
BITMAP
6940
8160
0408
0518
0790
0200
0100
ENDCHAR
STARTCHAR Q
ENCODING 81
SWIDTH 642 0
DWIDTH 7 0
BBX 7 7 0 -1
BITMAP
1A40
5090
8014
8108
5158
1AE0
0018
ENDCHAR
STARTCHAR R
ENCODING 82
SWIDTH 579 0
DWIDTH 6 0
BBX 6 8 0 -1
BITMAP
AA40
4060
2060
2A40
1800
1600
0490
0010
ENDCHAR
STARTCHAR S
ENCODING 83
SWIDTH 627 0
DWIDTH 7 0
BBX 7 7 0 0
BITMAP
0640
1410
1400
0640
4060
9008
1AA4
ENDCHAR
STARTCHAR T
ENCODING 84
SWIDTH 581 0
DWIDTH 6 0
BBX 7 7 0 0
BITMAP
5AA8
0200
0100
0140
0140
0180
0080
ENDCHAR
STARTCHAR U
ENCODING 85
SWIDTH 571 0
DWIDTH 6 0
BBX 6 6 0 0
BITMAP
4040
8080
8050
4060
50B0
2A10
ENDCHAR
STARTCHAR V
ENCODING 86
SWIDTH 421 0
DWIDTH 5 0
BBX 5 6 0 0
BITMAP
4040
9140
2200
2600
1A00
0800
ENDCHAR
STARTCHAR W
ENCODING 87
SWIDTH 703 0
DWIDTH 8 0
BBX 8 5 0 0
BITMAP
8008
8105
8205
5745
28A8
ENDCHAR
STARTCHAR X
ENCODING 88
SWIDTH 534 0
DWIDTH 6 0
BBX 6 7 0 -1
BITMAP
1010
2080
0A00
1D00
2200
8040
4000
ENDCHAR
STARTCHAR Y
ENCODING 89
SWIDTH 403 0
DWIDTH 4 0
BBX 4 7 0 0
BITMAP
81
52
1A
05
08
08
08
ENDCHAR
STARTCHAR Z
ENCODING 90
SWIDTH 571 0
DWIDTH 6 0
BBX 6 7 0 0
BITMAP
6900
0140
0140
1B90
0600
0800
0AA0
ENDCHAR
STARTCHAR bracketleft
ENCODING 91
SWIDTH 477 0
DWIDTH 5 0
BBX 6 9 0 -1
BITMAP
0640
6400
8000
5000
2000
2000
1000
2000
2AA0
ENDCHAR
STARTCHAR backslash
ENCODING 92
SWIDTH 430 0
DWIDTH 5 0
BBX 5 6 0 0
BITMAP
8000
6000
1800
0900
0200
0140
ENDCHAR
STARTCHAR bracketright
ENCODING 93
SWIDTH 430 0
DWIDTH 5 0
BBX 5 10 0 -1
BITMAP
6900
0200
0100
0140
0140
0140
0140
0140
0140
6A80
ENDCHAR
STARTCHAR asciicircum
ENCODING 94
SWIDTH 375 0
DWIDTH 4 0
BBX 3 2 1 6
BITMAP
60
A4
ENDCHAR
STARTCHAR underscore
ENCODING 95
SWIDTH 656 0
DWIDTH 7 0
BBX 7 1 0 0
BITMAP
6AA8
ENDCHAR
STARTCHAR grave
ENCODING 96
SWIDTH 172 0
DWIDTH 2 0
BBX 2 1 0 5
BITMAP
50
ENDCHAR
STARTCHAR a
ENCODING 97
SWIDTH 505 0
DWIDTH 6 0
BBX 5 6 0 0
BITMAP
0400
0600
1580
55C0
8040
6A80
ENDCHAR
STARTCHAR b
ENCODING 98
SWIDTH 497 0
DWIDTH 5 0
BBX 6 7 0 0
BITMAP
8000
8000
8000
6900
5180
5050
2A80
ENDCHAR
STARTCHAR c
ENCODING 99
SWIDTH 449 0
DWIDTH 5 0
BBX 5 5 0 0
BITMAP
2A00
8100
8000
8000
2A40
ENDCHAR
STARTCHAR d
ENCODING 100
SWIDTH 524 0
DWIDTH 6 0
BBX 6 8 0 0
BITMAP
0140
0180
00C0
2980
91D0
80D0
8290
2910
ENDCHAR
STARTCHAR e
ENCODING 101
SWIDTH 515 0
DWIDTH 6 0
BBX 5 6 0 0
BITMAP
1900
5200
8200
9400
5000
1A80
ENDCHAR
STARTCHAR f
ENCODING 102
SWIDTH 376 0
DWIDTH 4 0
BBX 5 8 0 0
BITMAP
0A00
2080
1000
2000
7900
2400
0800
0900
ENDCHAR
STARTCHAR g
ENCODING 103
SWIDTH 366 0
DWIDTH 4 0
BBX 6 11 -2 -6
BITMAP
0040
0250
0820
0870
06B0
0020
0020
4020
5020
1960
0140
ENDCHAR
STARTCHAR h
ENCODING 104
SWIDTH 427 0
DWIDTH 5 0
BBX 5 8 0 0
BITMAP
4000
8000
8000
A900
5200
5140
5140
5140
ENDCHAR
STARTCHAR i
ENCODING 105
SWIDTH 174 0
DWIDTH 2 0
BBX 2 7 0 0
BITMAP
40
00
40
50
50
60
20
ENDCHAR
STARTCHAR j
ENCODING 106
SWIDTH 200 0
DWIDTH 2 0
BBX 4 12 -1 -5
BITMAP
10
10
00
08
08
08
09
05
45
85
55
18
ENDCHAR
STARTCHAR k
ENCODING 107
SWIDTH 403 0
DWIDTH 4 0
BBX 5 7 0 0
BITMAP
4000
8000
8500
9400
6000
7000
5A40
ENDCHAR
STARTCHAR l
ENCODING 108
SWIDTH 120 0
DWIDTH 1 0
BBX 1 6 0 0
BITMAP
80
80
80
80
80
80
ENDCHAR
STARTCHAR m
ENCODING 109
SWIDTH 750 0
DWIDTH 8 0
BBX 8 5 0 0
BITMAP
1424
A695
8242
8142
4002
ENDCHAR
STARTCHAR n
ENCODING 110
SWIDTH 459 0
DWIDTH 5 0
BBX 5 5 0 0
BITMAP
5A00
9140
8080
9080
5080
ENDCHAR
STARTCHAR o
ENCODING 111
SWIDTH 487 0
DWIDTH 5 0
BBX 5 5 0 0
BITMAP
2A40
5080
8080
8080
2A00
ENDCHAR
STARTCHAR p
ENCODING 112
SWIDTH 520 0
DWIDTH 6 0
BBX 6 8 0 -4
BITMAP
1A40
9050
9450
9A80
5000
6000
2000
1000
ENDCHAR
STARTCHAR q
ENCODING 113
SWIDTH 412 0
DWIDTH 5 0
BBX 4 10 0 -4
BITMAP
05
62
82
82
82
2A
02
02
02
01
ENDCHAR
STARTCHAR r
ENCODING 114
SWIDTH 346 0
DWIDTH 4 0
BBX 4 5 0 0
BITMAP
69
80
80
50
10
ENDCHAR
STARTCHAR s
ENCODING 115
SWIDTH 514 0
DWIDTH 6 0
BBX 6 5 0 0
BITMAP
6900
5100
1A40
4050
6A80
ENDCHAR
STARTCHAR t
ENCODING 116
SWIDTH 328 0
DWIDTH 4 0
BBX 4 7 0 0
BITMAP
20
20
20
79
20
24
14
ENDCHAR
STARTCHAR u
ENCODING 117
SWIDTH 501 0
DWIDTH 6 0
BBX 5 5 0 0
BITMAP
4000
8080
8080
5180
2940
ENDCHAR
STARTCHAR v
ENCODING 118
SWIDTH 389 0
DWIDTH 4 0
BBX 4 4 0 0
BITMAP
81
52
29
18
ENDCHAR
STARTCHAR w
ENCODING 119
SWIDTH 656 0
DWIDTH 7 0
BBX 7 5 0 0
BITMAP
4000
8104
8208
8348
29A4
ENDCHAR
STARTCHAR x
ENCODING 120
SWIDTH 448 0
DWIDTH 5 0
BBX 5 5 0 -1
BITMAP
9240
2800
2900
5240
0040
ENDCHAR
STARTCHAR y
ENCODING 121
SWIDTH 487 0
DWIDTH 5 0
BBX 5 11 0 -6
BITMAP
4040
8080
8080
50C0
1940
0040
0040
0080
5080
2940
0500
ENDCHAR
STARTCHAR z
ENCODING 122
SWIDTH 459 0
DWIDTH 5 0
BBX 5 6 0 0
BITMAP
6900
4200
0600
6900
2000
2A40
ENDCHAR
STARTCHAR braceleft
ENCODING 123
SWIDTH 393 0
DWIDTH 4 0
BBX 4 11 0 -1
BITMAP
1A
50
80
40
28
29
42
18
20
50
2A
ENDCHAR
STARTCHAR bar
ENCODING 124
SWIDTH 149 0
DWIDTH 2 0
BBX 2 7 0 0
BITMAP
40
40
40
50
50
50
50
ENDCHAR
STARTCHAR braceright
ENCODING 125
SWIDTH 440 0
DWIDTH 5 0
BBX 5 14 0 -3
BITMAP
5400
9600
0200
0900
1400
2500
2400
1800
0500
0200
0040
0080
9240
1500
ENDCHAR
STARTCHAR asciitilde
ENCODING 126
SWIDTH 402 0
DWIDTH 4 0
BBX 4 2 0 4
BITMAP
56
40
ENDCHAR
STARTCHAR nonbreakingspace
ENCODING 160
SWIDTH 375 0
DWIDTH 4 0
BBX 1 1 0 0
BITMAP
00
ENDCHAR
STARTCHAR exclamdown
ENCODING 161
SWIDTH 149 0
DWIDTH 2 0
BBX 2 7 0 0
BITMAP
90
00
40
80
80
80
40
ENDCHAR
STARTCHAR cent
ENCODING 162
SWIDTH 449 0
DWIDTH 5 0
BBX 5 7 0 -1
BITMAP
0400
1900
5900
8800
8800
6E40
0400
ENDCHAR
STARTCHAR sterling
ENCODING 163
SWIDTH 758 0
DWIDTH 8 0
BBX 8 8 0 0
BITMAP
0029
0041
0040
1AE4
0100
0100
5640
B950
ENDCHAR
STARTCHAR currency
ENCODING 164
SWIDTH 618 0
DWIDTH 7 0
BBX 6 6 0 0
BITMAP
5150
29A0
2010
2020
2990
1010
ENDCHAR
STARTCHAR yen
ENCODING 165
SWIDTH 389 0
DWIDTH 4 0
BBX 5 8 0 0
BITMAP
5140
2200
1500
0800
5900
5900
1800
1400
ENDCHAR
STARTCHAR brokenbar
ENCODING 166
SWIDTH 117 0
DWIDTH 1 0
BBX 1 6 0 0
BITMAP
80
80
40
80
80
80
ENDCHAR
STARTCHAR section
ENCODING 167
SWIDTH 514 0
DWIDTH 6 0
BBX 6 8 0 0
BITMAP
0400
6640
6040
6A80
9060
2AC0
4050
2A80
ENDCHAR
STARTCHAR dieresis
ENCODING 168
SWIDTH 397 0
DWIDTH 4 0
BBX 3 1 1 5
BITMAP
94
ENDCHAR
STARTCHAR copyright
ENCODING 169
SWIDTH 667 0
DWIDTH 7 0
BBX 7 6 0 0
BITMAP
1A90
5694
8848
8804
6A98
1AA0
ENDCHAR
STARTCHAR ordfeminine
ENCODING 170
SWIDTH 266 0
DWIDTH 3 0
BBX 3 3 0 3
BITMAP
10
54
54
ENDCHAR
STARTCHAR guillemotleft
ENCODING 171
SWIDTH 755 0
DWIDTH 8 0
BBX 8 5 0 0
BITMAP
0049
06A0
1A40
A6A8
5A40
ENDCHAR
STARTCHAR logicalnot
ENCODING 172
SWIDTH 369 0
DWIDTH 4 0
BBX 4 2 0 3
BITMAP
55
12
ENDCHAR
STARTCHAR hyphen_
ENCODING 173
SWIDTH 375 0
DWIDTH 4 0
BBX 4 2 0 2
BITMAP
55
50
ENDCHAR
STARTCHAR registered
ENCODING 174
SWIDTH 708 0
DWIDTH 8 0
BBX 7 7 0 0
BITMAP
0500
15A0
6958
8598
4604
2558
1A90
ENDCHAR
STARTCHAR macron
ENCODING 175
SWIDTH 287 0
DWIDTH 3 0
BBX 3 1 0 5
BITMAP
68
ENDCHAR
STARTCHAR degree
ENCODING 176
SWIDTH 254 0
DWIDTH 3 0
BBX 3 4 0 3
BITMAP
10
54
44
60
ENDCHAR
STARTCHAR plusminus
ENCODING 177
SWIDTH 459 0
DWIDTH 5 0
BBX 5 5 0 0
BITMAP
0800
1D40
5D40
0900
2540
ENDCHAR
STARTCHAR twosuperior
ENCODING 178
SWIDTH 296 0
DWIDTH 3 0
BBX 3 4 0 2
BITMAP
10
04
04
A4
ENDCHAR
STARTCHAR threesuperior
ENCODING 179
SWIDTH 204 0
DWIDTH 2 0
BBX 2 4 0 3
BITMAP
50
50
10
50
ENDCHAR
STARTCHAR acute
ENCODING 180
SWIDTH 180 0
DWIDTH 2 0
BBX 2 2 0 4
BITMAP
50
40
ENDCHAR
STARTCHAR mu
ENCODING 181
SWIDTH 501 0
DWIDTH 6 0
BBX 6 6 0 -1
BITMAP
8040
8080
8180
A280
9950
4000
ENDCHAR
STARTCHAR paragraph
ENCODING 182
SWIDTH 413 0
DWIDTH 5 0
BBX 4 6 0 0
BITMAP
29
BE
BE
0A
0A
0A
ENDCHAR
STARTCHAR periodcentered
ENCODING 183
SWIDTH 212 0
DWIDTH 2 0
BBX 2 1 0 2
BITMAP
60
ENDCHAR
STARTCHAR cedilla
ENCODING 184
SWIDTH 445 0
DWIDTH 5 0
BBX 3 4 2 -4
BITMAP
40
64
54
50
ENDCHAR
STARTCHAR onesuperior
ENCODING 185
SWIDTH 197 0
DWIDTH 2 0
BBX 2 4 0 2
BITMAP
10
60
60
10
ENDCHAR
STARTCHAR ordmasculine
ENCODING 186
SWIDTH 254 0
DWIDTH 3 0
BBX 3 4 0 3
BITMAP
10
54
44
60
ENDCHAR
STARTCHAR guillemotright
ENCODING 187
SWIDTH 659 0
DWIDTH 7 0
BBX 7 5 0 0
BITMAP
6690
0A58
0264
1980
5100
ENDCHAR
STARTCHAR onequarter
ENCODING 188
SWIDTH 626 0
DWIDTH 7 0
BBX 7 8 0 0
BITMAP
0100
1500
2500
5400
1900
0914
15A0
1014
ENDCHAR
STARTCHAR onehalf
ENCODING 189
SWIDTH 566 0
DWIDTH 6 0
BBX 6 8 0 -1
BITMAP
0500
2500
6540
2450
1810
0810
1690
1000
ENDCHAR
STARTCHAR threequarters
ENCODING 190
SWIDTH 566 0
DWIDTH 6 0
BBX 6 8 0 -1
BITMAP
5100
5100
1500
5A00
0520
05A0
0410
1000
ENDCHAR
STARTCHAR questiondown
ENCODING 191
SWIDTH 272 0
DWIDTH 3 0
BBX 3 8 0 0
BITMAP
40
00
00
64
20
50
80
54
ENDCHAR
STARTCHAR Agrave
ENCODING 192
SWIDTH 562 0
DWIDTH 6 0
BBX 6 10 0 0
BITMAP
0500
0500
2540
1080
4050
4020
A560
4020
5020
5020
ENDCHAR
STARTCHAR Aacute
ENCODING 193
SWIDTH 562 0
DWIDTH 6 0
BBX 6 10 0 0
BITMAP
0800
1500
2540
1080
4050
4020
A560
4020
5020
5020
ENDCHAR
STARTCHAR Acircumflex
ENCODING 194
SWIDTH 562 0
DWIDTH 6 0
BBX 6 11 0 0
BITMAP
0900
1A00
0500
2540
1080
4050
4020
A560
4020
5020
5020
ENDCHAR
STARTCHAR Atilde
ENCODING 195
SWIDTH 562 0
DWIDTH 6 0
BBX 6 10 0 0
BITMAP
2540
1500
2540
1080
4050
4020
A560
4020
5020
5020
ENDCHAR
STARTCHAR Adieresis
ENCODING 196
SWIDTH 562 0
DWIDTH 6 0
BBX 6 10 0 0
BITMAP
1500
0500
2540
1080
4050
4020
A560
4020
5020
5020
ENDCHAR
STARTCHAR Aring
ENCODING 197
SWIDTH 562 0
DWIDTH 6 0
BBX 6 10 0 0
BITMAP
0500
0A00
2540
1080
4050
4020
A560
4020
5020
5020
ENDCHAR
STARTCHAR AE
ENCODING 198
SWIDTH 960 0
DWIDTH 11 0
BBX 10 9 0 0
BITMAP
050000
254000
10AAA0
407000
403050
A57940
402000
502000
502AA0
ENDCHAR
STARTCHAR Ccedilla
ENCODING 199
SWIDTH 515 0
DWIDTH 6 0
BBX 5 11 0 -4
BITMAP
0A40
2000
4000
4000
8000
4000
2A80
1000
0600
1540
0500
ENDCHAR
STARTCHAR Egrave
ENCODING 200
SWIDTH 524 0
DWIDTH 6 0
BBX 5 9 0 0
BITMAP
0900
0000
6A80
8000
8140
A500
8000
8000
6A80
ENDCHAR
STARTCHAR Eacute
ENCODING 201
SWIDTH 524 0
DWIDTH 6 0
BBX 5 9 0 0
BITMAP
0500
0400
6A80
8000
8140
A500
8000
8000
6A80
ENDCHAR
STARTCHAR Ecircumflex
ENCODING 202
SWIDTH 524 0
DWIDTH 6 0
BBX 5 10 0 0
BITMAP
0600
1A40
0000
6A80
8000
8140
A500
8000
8000
6A80
ENDCHAR
STARTCHAR Edieresis
ENCODING 203
SWIDTH 524 0
DWIDTH 6 0
BBX 5 9 0 0
BITMAP
1600
0000
6A80
8000
8140
A500
8000
8000
6A80
ENDCHAR
STARTCHAR Igrave
ENCODING 204
SWIDTH 167 0
DWIDTH 2 0
BBX 2 8 0 0
BITMAP
80
00
40
80
50
50
20
20
ENDCHAR
STARTCHAR Iacute
ENCODING 205
SWIDTH 167 0
DWIDTH 2 0
BBX 2 8 0 0
BITMAP
50
40
40
80
50
50
20
20
ENDCHAR
STARTCHAR Icircumflex
ENCODING 206
SWIDTH 167 0
DWIDTH 2 0
BBX 4 10 -1 0
BITMAP
18
69
00
00
10
20
14
14
08
08
ENDCHAR
STARTCHAR Idieresis
ENCODING 207
SWIDTH 167 0
DWIDTH 2 0
BBX 3 8 -1 0
BITMAP
94
40
10
20
14
14
08
08
ENDCHAR
STARTCHAR Eth
ENCODING 208
SWIDTH 741 0
DWIDTH 8 0
BBX 8 7 0 0
BITMAP
6A80
0224
0205
06A2
0142
0145
06A8
ENDCHAR
STARTCHAR Ntilde
ENCODING 209
SWIDTH 609 0
DWIDTH 7 0
BBX 7 8 0 0
BITMAP
1980
1000
4000
5020
A020
A414
8814
8290
ENDCHAR
STARTCHAR Ograve
ENCODING 210
SWIDTH 609 0
DWIDTH 7 0
BBX 7 8 0 0
BITMAP
0200
0000
0400
6640
8060
8014
5014
1A90
ENDCHAR
STARTCHAR Oacute
ENCODING 211
SWIDTH 609 0
DWIDTH 7 0
BBX 7 8 0 0
BITMAP
0200
0400
0400
6640
8060
8014
5014
1A90
ENDCHAR
STARTCHAR Ocircumflex
ENCODING 212
SWIDTH 609 0
DWIDTH 7 0
BBX 7 8 0 0
BITMAP
0800
2600
1400
6640
8060
8014
5014
1A90
ENDCHAR
STARTCHAR Otilde
ENCODING 213
SWIDTH 609 0
DWIDTH 7 0
BBX 7 7 0 0
BITMAP
2540
1500
6640
8060
8014
5014
1A90
ENDCHAR
STARTCHAR Odieresis
ENCODING 214
SWIDTH 609 0
DWIDTH 7 0
BBX 7 8 0 0
BITMAP
0940
0400
0400
6640
8060
8014
5014
1A90
ENDCHAR
STARTCHAR multiply
ENCODING 215
SWIDTH 448 0
DWIDTH 5 0
BBX 4 3 0 1
BITMAP
51
29
29
ENDCHAR
STARTCHAR Oslash
ENCODING 216
SWIDTH 609 0
DWIDTH 7 0
BBX 7 8 0 -1
BITMAP
0040
0540
6780
8260
8514
5814
2E90
2000
ENDCHAR
STARTCHAR Ugrave
ENCODING 217
SWIDTH 571 0
DWIDTH 6 0
BBX 6 8 0 0
BITMAP
0600
0000
4040
8080
8050
4060
50B0
2A10
ENDCHAR
STARTCHAR Uacute
ENCODING 218
SWIDTH 571 0
DWIDTH 6 0
BBX 6 8 0 0
BITMAP
0500
0400
4040
8080
8050
4060
50B0
2A10
ENDCHAR
STARTCHAR Ucircumflex
ENCODING 219
SWIDTH 571 0
DWIDTH 6 0
BBX 6 10 0 0
BITMAP
0600
0A80
0000
0000
4040
8080
8050
4060
50B0
2A10
ENDCHAR
STARTCHAR Udieresis
ENCODING 220
SWIDTH 571 0
DWIDTH 6 0
BBX 6 8 0 0
BITMAP
0940
0000
4040
8080
8050
4060
50B0
2A10
ENDCHAR
STARTCHAR Yacute
ENCODING 221
SWIDTH 403 0
DWIDTH 4 0
BBX 4 9 0 0
BITMAP
05
04
81
52
1A
05
08
08
08
ENDCHAR
STARTCHAR Thorn
ENCODING 222
SWIDTH 497 0
DWIDTH 5 0
BBX 6 9 0 -2
BITMAP
4000
5000
5000
6900
5180
5050
6A80
5000
1000
ENDCHAR
STARTCHAR germandbls
ENCODING 223
SWIDTH 590 0
DWIDTH 7 0
BBX 7 10 0 -2
BITMAP
6400
9200
8200
5E00
5180
1020
1024
2690
6000
1000
ENDCHAR
STARTCHAR agrave
ENCODING 224
SWIDTH 505 0
DWIDTH 6 0
BBX 5 7 0 0
BITMAP
0800
0400
0600
1580
55C0
8040
6A80
ENDCHAR
STARTCHAR aacute
ENCODING 225
SWIDTH 505 0
DWIDTH 6 0
BBX 5 8 0 0
BITMAP
0500
0400
0400
0600
1580
55C0
8040
6A80
ENDCHAR
STARTCHAR acircumflex
ENCODING 226
SWIDTH 505 0
DWIDTH 6 0
BBX 5 8 0 0
BITMAP
0900
1A00
1400
0600
1580
55C0
8040
6A80
ENDCHAR
STARTCHAR atilde
ENCODING 227
SWIDTH 505 0
DWIDTH 6 0
BBX 5 8 0 0
BITMAP
2540
0000
0400
0600
1580
55C0
8040
6A80
ENDCHAR
STARTCHAR adieresis
ENCODING 228
SWIDTH 505 0
DWIDTH 6 0
BBX 5 7 0 0
BITMAP
1600
1500
0600
1580
55C0
8040
6A80
ENDCHAR
STARTCHAR aring
ENCODING 229
SWIDTH 505 0
DWIDTH 6 0
BBX 5 7 0 0
BITMAP
0500
0900
0600
1580
55C0
8040
6A80
ENDCHAR
STARTCHAR ae
ENCODING 230
SWIDTH 881 0
DWIDTH 10 0
BBX 9 7 0 -1
BITMAP
040500
066600
15C100
55D900
805000
6AA940
000100
ENDCHAR
STARTCHAR ccedilla
ENCODING 231
SWIDTH 449 0
DWIDTH 5 0
BBX 5 9 0 -4
BITMAP
1900
5100
8000
8000
2A40
1400
0600
1500
0400
ENDCHAR
STARTCHAR egrave
ENCODING 232
SWIDTH 515 0
DWIDTH 6 0
BBX 5 7 0 0
BITMAP
0800
1900
5200
8200
9400
5000
1A80
ENDCHAR
STARTCHAR eacute
ENCODING 233
SWIDTH 515 0
DWIDTH 6 0
BBX 5 8 0 0
BITMAP
0800
1000
1900
5200
8200
9400
5000
1A80
ENDCHAR
STARTCHAR ecircumflex
ENCODING 234
SWIDTH 515 0
DWIDTH 6 0
BBX 5 8 0 0
BITMAP
0500
1A40
1900
5200
8200
9400
5000
1A80
ENDCHAR
STARTCHAR edieresis
ENCODING 235
SWIDTH 515 0
DWIDTH 6 0
BBX 5 7 0 0
BITMAP
2600
1900
5200
8200
9400
5000
1A80
ENDCHAR
STARTCHAR igrave
ENCODING 236
SWIDTH 174 0
DWIDTH 2 0
BBX 2 7 0 0
BITMAP
40
50
40
50
50
60
20
ENDCHAR
STARTCHAR iacute
ENCODING 237
SWIDTH 174 0
DWIDTH 2 0
BBX 2 7 0 0
BITMAP
50
40
40
50
50
60
20
ENDCHAR
STARTCHAR icircumflex
ENCODING 238
SWIDTH 174 0
DWIDTH 2 0
BBX 4 8 -1 0
BITMAP
18
69
00
10
14
14
18
08
ENDCHAR
STARTCHAR idieresis
ENCODING 239
SWIDTH 174 0
DWIDTH 2 0
BBX 3 7 -1 0
BITMAP
04
54
10
14
14
18
08
ENDCHAR
STARTCHAR eth
ENCODING 240
SWIDTH 407 0
DWIDTH 4 0
BBX 5 6 0 0
BITMAP
6400
1E40
1600
5640
8140
6A00
ENDCHAR
STARTCHAR ntilde
ENCODING 241
SWIDTH 459 0
DWIDTH 5 0
BBX 5 7 0 0
BITMAP
5600
4000
5A00
9140
8080
9080
5080
ENDCHAR
STARTCHAR ograve
ENCODING 242
SWIDTH 487 0
DWIDTH 5 0
BBX 5 6 0 0
BITMAP
0900
2B40
5080
8080
8080
2A00
ENDCHAR
STARTCHAR oacute
ENCODING 243
SWIDTH 487 0
DWIDTH 5 0
BBX 5 7 0 0
BITMAP
0800
0400
2A40
5080
8080
8080
2A00
ENDCHAR
STARTCHAR ocircumflex
ENCODING 244
SWIDTH 487 0
DWIDTH 5 0
BBX 5 7 0 0
BITMAP
0900
1600
2B40
5080
8080
8080
2A00
ENDCHAR
STARTCHAR otilde
ENCODING 245
SWIDTH 487 0
DWIDTH 5 0
BBX 5 6 0 0
BITMAP
2540
2B40
5080
8080
8080
2A00
ENDCHAR
STARTCHAR odieresis
ENCODING 246
SWIDTH 487 0
DWIDTH 5 0
BBX 5 6 0 0
BITMAP
1600
2B40
5080
8080
8080
2A00
ENDCHAR
STARTCHAR divide
ENCODING 247
SWIDTH 335 0
DWIDTH 4 0
BBX 3 2 0 2
BITMAP
10
68
ENDCHAR
STARTCHAR oslash
ENCODING 248
SWIDTH 487 0
DWIDTH 5 0
BBX 5 5 0 0
BITMAP
0600
6680
8880
A480
6A40
ENDCHAR
STARTCHAR ugrave
ENCODING 249
SWIDTH 501 0
DWIDTH 6 0
BBX 5 7 0 0
BITMAP
1800
0000
4000
8080
8080
5180
2940
ENDCHAR
STARTCHAR uacute
ENCODING 250
SWIDTH 501 0
DWIDTH 6 0
BBX 5 7 0 0
BITMAP
0500
0400
4000
8080
8080
5180
2940
ENDCHAR
STARTCHAR ucircumflex
ENCODING 251
SWIDTH 501 0
DWIDTH 6 0
BBX 5 8 0 0
BITMAP
0900
1A00
0000
4000
8080
8080
5180
2940
ENDCHAR
STARTCHAR udieresis
ENCODING 252
SWIDTH 501 0
DWIDTH 6 0
BBX 5 7 0 0
BITMAP
2200
1100
4000
8080
8080
5180
2940
ENDCHAR
STARTCHAR yacute
ENCODING 253
SWIDTH 487 0
DWIDTH 5 0
BBX 5 13 0 -6
BITMAP
0800
1400
4040
8080
8080
50C0
1940
0040
0040
0080
5080
2940
0500
ENDCHAR
STARTCHAR thorn
ENCODING 254
SWIDTH 520 0
DWIDTH 6 0
BBX 6 8 0 -2
BITMAP
4000
8000
AA80
9050
A590
9540
8000
8000
ENDCHAR
STARTCHAR ydieresis
ENCODING 255
SWIDTH 487 0
DWIDTH 5 0
BBX 5 13 0 -6
BITMAP
2200
0100
4040
8080
8080
50C0
1940
0040
0040
0080
5080
2940
0500
ENDCHAR
STARTCHAR Amacron
ENCODING 256
SWIDTH 562 0
DWIDTH 6 0
BBX 6 10 0 0
BITMAP
1A00
0500
2540
1080
4050
4020
A560
4020
5020
5020
ENDCHAR
STARTCHAR amacron
ENCODING 257
SWIDTH 505 0
DWIDTH 6 0
BBX 5 7 0 0
BITMAP
1A00
0400
0600
1580
55C0
8040
6A80
ENDCHAR
STARTCHAR Abreve
ENCODING 258
SWIDTH 562 0
DWIDTH 6 0
BBX 6 11 0 0
BITMAP
0100
0500
0500
2540
1080
4050
4020
A560
4020
5020
5020
ENDCHAR
STARTCHAR abreve
ENCODING 259
SWIDTH 505 0
DWIDTH 6 0
BBX 5 8 0 0
BITMAP
0100
0400
0400
0600
1580
55C0
8040
6A80
ENDCHAR
STARTCHAR Aogonek
ENCODING 260
SWIDTH 562 0
DWIDTH 6 0
BBX 6 11 0 -2
BITMAP
0500
2540
1080
4050
4020
A560
4020
5020
5060
0080
0050
ENDCHAR
STARTCHAR aogonek
ENCODING 261
SWIDTH 505 0
DWIDTH 6 0
BBX 5 8 0 -2
BITMAP
0400
0600
1580
55C0
8040
6A80
0200
0040
ENDCHAR
STARTCHAR Cacute
ENCODING 262
SWIDTH 515 0
DWIDTH 6 0
BBX 5 9 0 0
BITMAP
0200
0400
0A40
2000
4000
4000
8000
4000
2A80
ENDCHAR
STARTCHAR cacute
ENCODING 263
SWIDTH 449 0
DWIDTH 5 0
BBX 5 7 0 0
BITMAP
0500
0400
2A00
8100
8000
8000
2A40
ENDCHAR
STARTCHAR Ccircumflex
ENCODING 264
SWIDTH 515 0
DWIDTH 6 0
BBX 5 10 0 0
BITMAP
0500
1A40
0000
0A40
2000
4000
4000
8000
4000
2A80
ENDCHAR
STARTCHAR ccircumflex
ENCODING 265
SWIDTH 449 0
DWIDTH 5 0
BBX 5 8 0 0
BITMAP
0800
2600
0000
2A00
8100
8000
8000
2A40
ENDCHAR
STARTCHAR Cdotaccent
ENCODING 266
SWIDTH 515 0
DWIDTH 6 0
BBX 5 9 0 0
BITMAP
0500
0000
0A40
2000
4000
4000
8000
4000
2A80
ENDCHAR
STARTCHAR cdotaccent
ENCODING 267
SWIDTH 449 0
DWIDTH 5 0
BBX 5 6 0 0
BITMAP
0800
2A00
8100
8000
8000
2A40
ENDCHAR
STARTCHAR Ccaron
ENCODING 268
SWIDTH 515 0
DWIDTH 6 0
BBX 5 9 0 0
BITMAP
0540
0200
0A40
2000
4000
4000
8000
4000
2A80
ENDCHAR
STARTCHAR ccaron
ENCODING 269
SWIDTH 449 0
DWIDTH 5 0
BBX 5 7 0 0
BITMAP
1500
0400
2A00
8100
8000
8000
2A40
ENDCHAR
STARTCHAR Dcaron
ENCODING 270
SWIDTH 741 0
DWIDTH 8 0
BBX 8 9 0 0
BITMAP
0150
0040
6A80
0224
0205
0142
0142
0145
06A8
ENDCHAR
STARTCHAR dcaron
ENCODING 271
SWIDTH 582 0
DWIDTH 6 0
BBX 7 8 0 0
BITMAP
0150
0194
00D0
2980
91D0
80D0
8290
2910
ENDCHAR
STARTCHAR Dcroat
ENCODING 272
SWIDTH 741 0
DWIDTH 8 0
BBX 8 7 0 0
BITMAP
6A80
0224
0205
0682
0142
0145
06A8
ENDCHAR
STARTCHAR dcroat
ENCODING 273
SWIDTH 524 0
DWIDTH 6 0
BBX 6 8 0 0
BITMAP
0140
0690
05C0
2980
91D0
80D0
8290
2910
ENDCHAR
STARTCHAR Emacron
ENCODING 274
SWIDTH 524 0
DWIDTH 6 0
BBX 5 8 0 0
BITMAP
1A00
6A80
8000
8140
A500
8000
8000
6A80
ENDCHAR
STARTCHAR emacron
ENCODING 275
SWIDTH 515 0
DWIDTH 6 0
BBX 5 7 0 0
BITMAP
1A00
1900
5200
8200
9400
5000
1A80
ENDCHAR
STARTCHAR Ebreve
ENCODING 276
SWIDTH 524 0
DWIDTH 6 0
BBX 5 9 0 0
BITMAP
0100
0500
6A80
8000
8140
A500
8000
8000
6A80
ENDCHAR
STARTCHAR ebreve
ENCODING 277
SWIDTH 515 0
DWIDTH 6 0
BBX 5 8 0 0
BITMAP
0100
0500
1900
5200
8200
9400
5000
1A80
ENDCHAR
STARTCHAR Edotaccent
ENCODING 278
SWIDTH 524 0
DWIDTH 6 0
BBX 5 8 0 0
BITMAP
0800
6A80
8000
8140
A500
8000
8000
6A80
ENDCHAR
STARTCHAR edotaccent
ENCODING 279
SWIDTH 515 0
DWIDTH 6 0
BBX 5 7 0 0
BITMAP
0800
1900
5200
8200
9400
5000
1A80
ENDCHAR
STARTCHAR Eogonek
ENCODING 280
SWIDTH 524 0
DWIDTH 6 0
BBX 5 9 0 -2
BITMAP
6A80
8000
8140
A500
8000
8000
6A80
0200
0140
ENDCHAR
STARTCHAR eogonek
ENCODING 281
SWIDTH 515 0
DWIDTH 6 0
BBX 5 8 0 -2
BITMAP
1900
5200
8200
9400
5000
1A80
0500
0140
ENDCHAR
STARTCHAR Ecaron
ENCODING 282
SWIDTH 524 0
DWIDTH 6 0
BBX 5 9 0 0
BITMAP
1540
0500
6A80
8000
8140
A500
8000
8000
6A80
ENDCHAR
STARTCHAR ecaron
ENCODING 283
SWIDTH 515 0
DWIDTH 6 0
BBX 5 8 0 0
BITMAP
1500
0500
1900
5200
8200
9400
5000
1A80
ENDCHAR
STARTCHAR Gcircumflex
ENCODING 284
SWIDTH 571 0
DWIDTH 6 0
BBX 6 10 0 -1
BITMAP
0180
0290
0000
0190
1800
5000
8160
4020
2960
0010
ENDCHAR
STARTCHAR gcircumflex
ENCODING 285
SWIDTH 366 0
DWIDTH 4 0
BBX 6 14 -2 -6
BITMAP
0180
0290
0000
0040
0250
0820
0870
06B0
0020
0020
4020
5020
1960
0140
ENDCHAR
STARTCHAR Gbreve
ENCODING 286
SWIDTH 571 0
DWIDTH 6 0
BBX 6 8 0 -1
BITMAP
0500
0190
1800
5000
8160
4020
2960
0010
ENDCHAR
STARTCHAR gbreve
ENCODING 287
SWIDTH 366 0
DWIDTH 4 0
BBX 6 13 -2 -6
BITMAP
0040
0140
0040
0250
0820
0870
06B0
0020
0020
4020
5020
1960
0140
ENDCHAR
STARTCHAR Gdotaccent
ENCODING 288
SWIDTH 571 0
DWIDTH 6 0
BBX 6 8 0 -1
BITMAP
0100
0190
1800
5000
8160
4020
2960
0010
ENDCHAR
STARTCHAR gdotaccent
ENCODING 289
SWIDTH 366 0
DWIDTH 4 0
BBX 6 12 -2 -6
BITMAP
0140
0040
0250
0820
0870
06B0
0020
0020
4020
5020
1960
0140
ENDCHAR
STARTCHAR Gcommaaccent
ENCODING 290
SWIDTH 571 0
DWIDTH 6 0
BBX 6 9 0 -3
BITMAP
0190
1800
5000
8160
4020
2960
0010
0500
0100
ENDCHAR
STARTCHAR gcommaaccent
ENCODING 291
SWIDTH 366 0
DWIDTH 4 0
BBX 6 16 -2 -6
BITMAP
0140
0140
0040
0000
0000
0040
0250
0820
0870
06B0
0020
0020
4020
5020
1960
0140
ENDCHAR
STARTCHAR Hcircumflex
ENCODING 292
SWIDTH 524 0
DWIDTH 6 0
BBX 6 10 0 0
BITMAP
0500
1A40
0040
4040
8040
4080
5A80
A040
1050
1050
ENDCHAR
STARTCHAR hcircumflex
ENCODING 293
SWIDTH 427 0
DWIDTH 5 0
BBX 5 9 0 0
BITMAP
0800
6600
8000
8000
A900
5200
5140
5140
5140
ENDCHAR
STARTCHAR hbar
ENCODING 295
SWIDTH 427 0
DWIDTH 5 0
BBX 6 8 -1 0
BITMAP
1000
2000
B400
2A40
1480
1450
1450
1450
ENDCHAR
STARTCHAR Itilde
ENCODING 296
SWIDTH 167 0
DWIDTH 2 0
BBX 4 8 -1 0
BITMAP
95
40
10
20
14
14
08
08
ENDCHAR
STARTCHAR itilde
ENCODING 297
SWIDTH 174 0
DWIDTH 2 0
BBX 4 7 -1 0
BITMAP
5A
00
10
14
14
18
08
ENDCHAR
STARTCHAR imacron
ENCODING 299
SWIDTH 174 0
DWIDTH 2 0
BBX 2 7 0 0
BITMAP
A0
00
40
50
50
60
20
ENDCHAR
STARTCHAR Ibreve
ENCODING 300
SWIDTH 167 0
DWIDTH 2 0
BBX 2 9 0 0
BITMAP
10
50
00
40
80
50
50
20
20
ENDCHAR
STARTCHAR ibreve
ENCODING 301
SWIDTH 174 0
DWIDTH 2 0
BBX 2 7 0 0
BITMAP
50
40
40
50
50
60
20
ENDCHAR
STARTCHAR Iogonek
ENCODING 302
SWIDTH 167 0
DWIDTH 2 0
BBX 2 8 0 -2
BITMAP
40
80
50
50
20
60
80
50
ENDCHAR
STARTCHAR iogonek
ENCODING 303
SWIDTH 174 0
DWIDTH 2 0
BBX 2 9 0 -2
BITMAP
40
00
40
50
50
60
60
80
50
ENDCHAR
STARTCHAR Idotaccent
ENCODING 304
SWIDTH 167 0
DWIDTH 2 0
BBX 2 8 0 0
BITMAP
40
00
40
80
50
50
20
20
ENDCHAR
STARTCHAR dotlessi
ENCODING 305
SWIDTH 174 0
DWIDTH 2 0
BBX 2 5 0 0
BITMAP
40
50
50
60
20
ENDCHAR
STARTCHAR Jcircumflex
ENCODING 308
SWIDTH 439 0
DWIDTH 5 0
BBX 5 11 0 0
BITMAP
0240
0580
0000
0100
0140
0140
0040
4080
4080
1080
0640
ENDCHAR
STARTCHAR jcircumflex
ENCODING 309
SWIDTH 200 0
DWIDTH 2 0
BBX 4 13 -1 -5
BITMAP
18
29
00
00
08
08
08
09
05
45
85
55
18
ENDCHAR
STARTCHAR Kcommaaccent
ENCODING 310
SWIDTH 468 0
DWIDTH 5 0
BBX 5 11 0 -4
BITMAP
0100
8900
A400
5000
6000
5900
5180
0000
0800
0800
0400
ENDCHAR
STARTCHAR kcommaaccent
ENCODING 311
SWIDTH 403 0
DWIDTH 4 0
BBX 5 10 0 -3
BITMAP
4000
8000
8500
9400
6000
7000
5A40
0000
0400
0800
ENDCHAR
STARTCHAR Lacute
ENCODING 313
SWIDTH 346 0
DWIDTH 4 0
BBX 4 8 0 0
BITMAP
08
10
40
80
80
80
80
69
ENDCHAR
STARTCHAR lacute
ENCODING 314
SWIDTH 120 0
DWIDTH 1 0
BBX 2 8 0 0
BITMAP
50
40
80
80
80
80
80
80
ENDCHAR
STARTCHAR Lcommaaccent
ENCODING 315
SWIDTH 346 0
DWIDTH 4 0
BBX 4 10 0 -4
BITMAP
40
80
80
80
80
69
00
14
14
10
ENDCHAR
STARTCHAR lcommaaccent
ENCODING 316
SWIDTH 120 0
DWIDTH 1 0
BBX 1 10 0 -4
BITMAP
80
80
80
80
80
80
00
80
80
40
ENDCHAR
STARTCHAR Lcaron
ENCODING 317
SWIDTH 346 0
DWIDTH 4 0
BBX 4 8 0 0
BITMAP
04
08
44
80
80
80
80
69
ENDCHAR
STARTCHAR lcaron
ENCODING 318
SWIDTH 222 0
DWIDTH 2 0
BBX 3 8 0 0
BITMAP
10
14
80
80
80
80
80
80
ENDCHAR
STARTCHAR Ldot
ENCODING 319
SWIDTH 346 0
DWIDTH 4 0
BBX 4 6 0 0
BITMAP
40
80
80
A4
80
69
ENDCHAR
STARTCHAR ldot
ENCODING 320
SWIDTH 333 0
DWIDTH 4 0
BBX 3 6 0 0
BITMAP
80
80
80
8C
80
80
ENDCHAR
STARTCHAR Lslash
ENCODING 321
SWIDTH 346 0
DWIDTH 4 0
BBX 4 6 0 0
BITMAP
10
20
60
A0
50
2A
ENDCHAR
STARTCHAR lslash
ENCODING 322
SWIDTH 120 0
DWIDTH 1 0
BBX 3 7 -1 0
BITMAP
10
20
24
28
60
20
10
ENDCHAR
STARTCHAR Nacute
ENCODING 323
SWIDTH 609 0
DWIDTH 7 0
BBX 7 8 0 0
BITMAP
0200
0400
4000
5020
A020
A414
8814
8290
ENDCHAR
STARTCHAR nacute
ENCODING 324
SWIDTH 459 0
DWIDTH 5 0
BBX 5 7 0 0
BITMAP
0800
1000
5A00
9140
8080
9080
5080
ENDCHAR
STARTCHAR Ncommaaccent
ENCODING 325
SWIDTH 609 0
DWIDTH 7 0
BBX 7 10 0 -4
BITMAP
4000
5020
A020
A414
8814
8290
0000
0200
0200
0100
ENDCHAR
STARTCHAR ncommaaccent
ENCODING 326
SWIDTH 459 0
DWIDTH 5 0
BBX 5 9 0 -4
BITMAP
5A00
9140
8080
9080
5080
0000
0800
0800
0400
ENDCHAR
STARTCHAR Ncaron
ENCODING 327
SWIDTH 609 0
DWIDTH 7 0
BBX 7 9 0 0
BITMAP
0540
0200
0000
4000
5020
A020
A414
8814
8290
ENDCHAR
STARTCHAR ncaron
ENCODING 328
SWIDTH 459 0
DWIDTH 5 0
BBX 5 7 0 0
BITMAP
1500
0400
5A00
9140
8080
9080
5080
ENDCHAR
STARTCHAR napostrophe
ENCODING 329
SWIDTH 459 0
DWIDTH 5 0
BBX 5 7 0 0
BITMAP
2000
2000
6A00
9140
8080
9080
5080
ENDCHAR
STARTCHAR Omacron
ENCODING 332
SWIDTH 609 0
DWIDTH 7 0
BBX 7 8 0 0
BITMAP
0A40
0000
0400
6640
8060
8014
5014
1A90
ENDCHAR
STARTCHAR omacron
ENCODING 333
SWIDTH 487 0
DWIDTH 5 0
BBX 5 6 0 0
BITMAP
1A00
2A40
5080
8080
8080
2A00
ENDCHAR
STARTCHAR Obreve
ENCODING 334
SWIDTH 609 0
DWIDTH 7 0
BBX 7 7 0 0
BITMAP
0500
0400
6640
8060
8014
5014
1A90
ENDCHAR
STARTCHAR obreve
ENCODING 335
SWIDTH 487 0
DWIDTH 5 0
BBX 5 6 0 0
BITMAP
1400
2A40
5080
8080
8080
2A00
ENDCHAR
STARTCHAR Ohungarumlaut
ENCODING 336
SWIDTH 609 0
DWIDTH 7 0
BBX 7 8 0 0
BITMAP
0A40
0000
0400
6640
8060
8014
5014
1A90
ENDCHAR
STARTCHAR ohungarumlaut
ENCODING 337
SWIDTH 487 0
DWIDTH 5 0
BBX 5 6 0 0
BITMAP
1500
2A40
5080
8080
8080
2A00
ENDCHAR
STARTCHAR OE
ENCODING 338
SWIDTH 848 0
DWIDTH 9 0
BBX 9 6 0 0
BITMAP
041000
569540
81C140
809500
508000
1AAA80
ENDCHAR
STARTCHAR oe
ENCODING 339
SWIDTH 875 0
DWIDTH 10 0
BBX 9 7 0 -1
BITMAP
000400
052600
61C200
809900
80C000
2A6540
000540
ENDCHAR
STARTCHAR Racute
ENCODING 340
SWIDTH 579 0
DWIDTH 6 0
BBX 6 10 0 -1
BITMAP
0200
0500
AA40
4060
2060
2A40
1800
1600
0490
0010
ENDCHAR
STARTCHAR racute
ENCODING 341
SWIDTH 346 0
DWIDTH 4 0
BBX 4 7 0 0
BITMAP
18
10
69
80
80
50
10
ENDCHAR
STARTCHAR Rcommaaccent
ENCODING 342
SWIDTH 579 0
DWIDTH 6 0
BBX 6 10 0 -3
BITMAP
AA40
4060
2060
2A40
1800
1600
0490
0010
0100
0200
ENDCHAR
STARTCHAR rcommaaccent
ENCODING 343
SWIDTH 346 0
DWIDTH 4 0
BBX 4 9 0 -4
BITMAP
69
80
80
50
10
00
14
14
10
ENDCHAR
STARTCHAR Rcaron
ENCODING 344
SWIDTH 579 0
DWIDTH 6 0
BBX 6 10 0 -1
BITMAP
0540
0100
AA40
4060
2060
2A40
1800
1600
0490
0010
ENDCHAR
STARTCHAR rcaron
ENCODING 345
SWIDTH 346 0
DWIDTH 4 0
BBX 4 7 0 0
BITMAP
15
14
69
80
80
50
10
ENDCHAR
STARTCHAR Sacute
ENCODING 346
SWIDTH 627 0
DWIDTH 7 0
BBX 7 9 0 0
BITMAP
0200
0400
0640
1410
1400
0640
4060
9008
1AA4
ENDCHAR
STARTCHAR sacute
ENCODING 347
SWIDTH 514 0
DWIDTH 6 0
BBX 6 8 0 0
BITMAP
0500
0400
0000
6900
5100
1A40
4050
6A80
ENDCHAR
STARTCHAR Scircumflex
ENCODING 348
SWIDTH 627 0
DWIDTH 7 0
BBX 7 10 0 0
BITMAP
0200
0980
0000
0640
1410
1400
0640
4060
9008
1AA4
ENDCHAR
STARTCHAR scircumflex
ENCODING 349
SWIDTH 514 0
DWIDTH 6 0
BBX 6 8 0 0
BITMAP
0900
1A40
0000
6900
5100
1A40
4050
6A80
ENDCHAR
STARTCHAR Scedilla
ENCODING 350
SWIDTH 627 0
DWIDTH 7 0
BBX 7 11 0 -4
BITMAP
0640
1410
1400
0640
4060
9008
1AA4
0800
0540
0580
0100
ENDCHAR
STARTCHAR scedilla
ENCODING 351
SWIDTH 514 0
DWIDTH 6 0
BBX 6 9 0 -4
BITMAP
6900
5100
1A40
4050
6A80
1000
0600
1540
0500
ENDCHAR
STARTCHAR Scaron
ENCODING 352
SWIDTH 627 0
DWIDTH 7 0
BBX 7 9 0 0
BITMAP
0540
0100
0640
1410
1400
0640
4060
9008
1AA4
ENDCHAR
STARTCHAR scaron
ENCODING 353
SWIDTH 514 0
DWIDTH 6 0
BBX 6 7 0 0
BITMAP
1500
0500
6900
5100
1A40
4050
6A80
ENDCHAR
STARTCHAR Tcommaaccent
ENCODING 354
SWIDTH 581 0
DWIDTH 6 0
BBX 7 11 0 -4
BITMAP
5AA8
0200
0100
0140
0140
0180
0080
0000
0080
0080
0040
ENDCHAR
STARTCHAR tcommaaccent
ENCODING 355
SWIDTH 328 0
DWIDTH 4 0
BBX 4 11 0 -4
BITMAP
20
20
20
79
20
24
14
00
10
20
10
ENDCHAR
STARTCHAR Tcaron
ENCODING 356
SWIDTH 581 0
DWIDTH 6 0
BBX 7 9 0 0
BITMAP
0540
0600
5AA8
0200
0100
0140
0140
0180
0080
ENDCHAR
STARTCHAR tcaron
ENCODING 357
SWIDTH 431 0
DWIDTH 5 0
BBX 5 8 0 0
BITMAP
0040
2080
2040
2000
7900
2000
2400
1400
ENDCHAR
STARTCHAR Utilde
ENCODING 360
SWIDTH 571 0
DWIDTH 6 0
BBX 6 8 0 0
BITMAP
1580
1000
4040
8080
8050
4060
50B0
2A10
ENDCHAR
STARTCHAR utilde
ENCODING 361
SWIDTH 501 0
DWIDTH 6 0
BBX 5 7 0 0
BITMAP
2540
1100
4000
8080
8080
5180
2940
ENDCHAR
STARTCHAR Umacron
ENCODING 362
SWIDTH 571 0
DWIDTH 6 0
BBX 6 8 0 0
BITMAP
0A40
0000
4040
8080
8050
4060
50B0
2A10
ENDCHAR
STARTCHAR umacron
ENCODING 363
SWIDTH 501 0
DWIDTH 6 0
BBX 5 7 0 0
BITMAP
2A00
0000
4000
8080
8080
5180
2940
ENDCHAR
STARTCHAR Ubreve
ENCODING 364
SWIDTH 571 0
DWIDTH 6 0
BBX 6 7 0 0
BITMAP
0500
4040
8080
8050
4060
50B0
2A10
ENDCHAR
STARTCHAR ubreve
ENCODING 365
SWIDTH 501 0
DWIDTH 6 0
BBX 5 7 0 0
BITMAP
0100
0400
4000
8080
8080
5180
2940
ENDCHAR
STARTCHAR Uring
ENCODING 366
SWIDTH 571 0
DWIDTH 6 0
BBX 6 8 0 0
BITMAP
0500
0500
4040
8080
8050
4060
50B0
2A10
ENDCHAR
STARTCHAR uring
ENCODING 367
SWIDTH 501 0
DWIDTH 6 0
BBX 5 7 0 0
BITMAP
0400
1500
4500
8080
8080
5180
2940
ENDCHAR
STARTCHAR Uhungarumlaut
ENCODING 368
SWIDTH 571 0
DWIDTH 6 0
BBX 6 8 0 0
BITMAP
0A00
0000
4040
8080
8050
4060
50B0
2A10
ENDCHAR
STARTCHAR uhungarumlaut
ENCODING 369
SWIDTH 501 0
DWIDTH 6 0
BBX 5 7 0 0
BITMAP
0A00
0000
4000
8080
8080
5180
2940
ENDCHAR
STARTCHAR Uogonek
ENCODING 370
SWIDTH 571 0
DWIDTH 6 0
BBX 7 8 0 -2
BITMAP
1000
4050
8050
4010
5060
25A0
0550
0054
ENDCHAR
STARTCHAR uogonek
ENCODING 371
SWIDTH 501 0
DWIDTH 6 0
BBX 6 7 0 -2
BITMAP
8040
8080
8180
6280
1890
0140
0050
ENDCHAR
STARTCHAR Wcircumflex
ENCODING 372
SWIDTH 703 0
DWIDTH 8 0
BBX 8 10 0 0
BITMAP
0180
0690
0000
0000
0000
8008
8105
8205
5745
28A8
ENDCHAR
STARTCHAR wcircumflex
ENCODING 373
SWIDTH 656 0
DWIDTH 7 0
BBX 7 8 0 0
BITMAP
0240
0580
0000
4000
8104
8208
8348
29A4
ENDCHAR
STARTCHAR Ycircumflex
ENCODING 374
SWIDTH 403 0
DWIDTH 4 0
BBX 4 10 0 0
BITMAP
08
26
00
81
52
1A
05
08
08
08
ENDCHAR
STARTCHAR ycircumflex
ENCODING 375
SWIDTH 487 0
DWIDTH 5 0
BBX 5 14 0 -6
BITMAP
0900
1A00
0000
4040
8080
8080
50C0
1940
0040
0040
0080
5080
2940
0500
ENDCHAR
STARTCHAR Ydieresis
ENCODING 376
SWIDTH 403 0
DWIDTH 4 0
BBX 4 9 0 0
BITMAP
25
10
81
52
1A
05
08
08
08
ENDCHAR
STARTCHAR Zacute
ENCODING 377
SWIDTH 571 0
DWIDTH 6 0
BBX 6 9 0 0
BITMAP
0200
0400
6900
0140
0140
1B90
0600
0800
0AA0
ENDCHAR
STARTCHAR zacute
ENCODING 378
SWIDTH 459 0
DWIDTH 5 0
BBX 5 8 0 0
BITMAP
0800
1000
6900
4200
0600
6900
2000
2A40
ENDCHAR
STARTCHAR Zdotaccent
ENCODING 379
SWIDTH 571 0
DWIDTH 6 0
BBX 6 8 0 0
BITMAP
0800
6900
0140
0140
1B90
0600
0800
0AA0
ENDCHAR
STARTCHAR zdotaccent
ENCODING 380
SWIDTH 459 0
DWIDTH 5 0
BBX 5 7 0 0
BITMAP
0800
6900
4200
0600
6900
2000
2A40
ENDCHAR
STARTCHAR Zcaron
ENCODING 381
SWIDTH 571 0
DWIDTH 6 0
BBX 6 9 0 0
BITMAP
1500
0500
6900
0140
0140
1B90
0600
0800
0AA0
ENDCHAR
STARTCHAR zcaron
ENCODING 382
SWIDTH 459 0
DWIDTH 5 0
BBX 5 8 0 0
BITMAP
1500
0400
6900
4200
0600
6900
2000
2A40
ENDCHAR
STARTCHAR florin
ENCODING 402
SWIDTH 376 0
DWIDTH 4 0
BBX 6 11 -1 -3
BITMAP
0280
0820
0800
0800
1E40
0800
0800
0800
0800
8800
2800
ENDCHAR
STARTCHAR AEacute
ENCODING 508
SWIDTH 960 0
DWIDTH 11 0
BBX 10 9 0 0
BITMAP
051400
255000
10AAA0
407000
403050
A57940
402000
502000
502AA0
ENDCHAR
STARTCHAR aeacute
ENCODING 509
SWIDTH 881 0
DWIDTH 10 0
BBX 9 9 0 -1
BITMAP
002000
004000
040500
066600
15C100
55D900
805000
6AA940
000100
ENDCHAR
STARTCHAR Oslashacute
ENCODING 510
SWIDTH 609 0
DWIDTH 7 0
BBX 7 9 0 -1
BITMAP
0100
0500
0440
6680
8160
8214
5514
1E90
0400
ENDCHAR
STARTCHAR oslashacute
ENCODING 511
SWIDTH 487 0
DWIDTH 5 0
BBX 5 7 0 0
BITMAP
0100
0800
0540
6280
8680
8980
3A40
ENDCHAR
STARTCHAR Scommaaccent
ENCODING 536
SWIDTH 627 0
DWIDTH 7 0
BBX 7 10 0 -3
BITMAP
0640
1410
1400
0640
4060
9008
1AA4
0000
0100
0200
ENDCHAR
STARTCHAR scommaaccent
ENCODING 537
SWIDTH 514 0
DWIDTH 6 0
BBX 6 9 0 -4
BITMAP
6900
5100
1A40
4050
6A80
0000
0400
0500
0400
ENDCHAR
STARTCHAR circumflex
ENCODING 710
SWIDTH 375 0
DWIDTH 4 0
BBX 3 2 1 6
BITMAP
60
A4
ENDCHAR
STARTCHAR caron
ENCODING 711
SWIDTH 375 0
DWIDTH 4 0
BBX 3 2 1 5
BITMAP
54
50
ENDCHAR
STARTCHAR breve
ENCODING 728
SWIDTH 224 0
DWIDTH 2 0
BBX 2 1 0 4
BITMAP
50
ENDCHAR
STARTCHAR dotaccent
ENCODING 729
SWIDTH 152 0
DWIDTH 2 0
BBX 2 1 0 5
BITMAP
50
ENDCHAR
STARTCHAR ring
ENCODING 730
SWIDTH 333 0
DWIDTH 4 0
BBX 2 2 1 4
BITMAP
50
50
ENDCHAR
STARTCHAR ogonek
ENCODING 731
SWIDTH 254 0
DWIDTH 3 0
BBX 2 3 0 -2
BITMAP
10
80
50
ENDCHAR
STARTCHAR tilde
ENCODING 732
SWIDTH 402 0
DWIDTH 4 0
BBX 4 2 0 4
BITMAP
56
40
ENDCHAR
STARTCHAR hungarumlaut
ENCODING 733
SWIDTH 264 0
DWIDTH 3 0
BBX 3 1 0 5
BITMAP
54
ENDCHAR
STARTCHAR Wgrave
ENCODING 7808
SWIDTH 703 0
DWIDTH 8 0
BBX 8 8 0 0
BITMAP
0140
0000
0000
8008
8105
8205
5745
28A8
ENDCHAR
STARTCHAR wgrave
ENCODING 7809
SWIDTH 656 0
DWIDTH 7 0
BBX 7 6 0 0
BITMAP
0240
4000
8104
8208
8348
29A4
ENDCHAR
STARTCHAR Wacute
ENCODING 7810
SWIDTH 703 0
DWIDTH 8 0
BBX 8 8 0 0
BITMAP
0140
0100
0000
8008
8105
8205
5745
28A8
ENDCHAR
STARTCHAR wacute
ENCODING 7811
SWIDTH 656 0
DWIDTH 7 0
BBX 7 7 0 0
BITMAP
0140
0100
4000
8104
8208
8348
29A4
ENDCHAR
STARTCHAR Wdieresis
ENCODING 7812
SWIDTH 703 0
DWIDTH 8 0
BBX 8 8 0 0
BITMAP
0580
0000
0000
8008
8105
8205
5745
28A8
ENDCHAR
STARTCHAR wdieresis
ENCODING 7813
SWIDTH 656 0
DWIDTH 7 0
BBX 7 6 0 0
BITMAP
0980
4040
8104
8208
8348
29A4
ENDCHAR
STARTCHAR Ygrave
ENCODING 7922
SWIDTH 403 0
DWIDTH 4 0
BBX 4 9 0 0
BITMAP
18
00
81
52
1A
05
08
08
08
ENDCHAR
STARTCHAR ygrave
ENCODING 7923
SWIDTH 487 0
DWIDTH 5 0
BBX 5 12 0 -6
BITMAP
0900
4040
8080
8080
50C0
1940
0040
0040
0080
5080
2940
0500
ENDCHAR
STARTCHAR endash
ENCODING 8211
SWIDTH 287 0
DWIDTH 3 0
BBX 3 2 0 2
BITMAP
54
54
ENDCHAR
STARTCHAR emdash
ENCODING 8212
SWIDTH 512 0
DWIDTH 6 0
BBX 5 2 0 2
BITMAP
1540
5440
ENDCHAR
STARTCHAR quoteleft
ENCODING 8216
SWIDTH 102 0
DWIDTH 1 0
BBX 1 3 0 5
BITMAP
40
80
40
ENDCHAR
STARTCHAR quoteright
ENCODING 8217
SWIDTH 102 0
DWIDTH 1 0
BBX 1 3 0 5
BITMAP
40
80
40
ENDCHAR
STARTCHAR quotesinglbase
ENCODING 8218
SWIDTH 102 0
DWIDTH 1 0
BBX 1 2 0 0
BITMAP
80
80
ENDCHAR
STARTCHAR quotedblleft
ENCODING 8220
SWIDTH 234 0
DWIDTH 3 0
BBX 3 4 0 5
BITMAP
50
94
94
10
ENDCHAR
STARTCHAR quotedblright
ENCODING 8221
SWIDTH 234 0
DWIDTH 3 0
BBX 3 4 0 5
BITMAP
50
94
94
10
ENDCHAR
STARTCHAR quotedblbase
ENCODING 8222
SWIDTH 341 0
DWIDTH 4 0
BBX 2 3 1 -1
BITMAP
50
A0
A0
ENDCHAR
STARTCHAR dagger
ENCODING 8224
SWIDTH 375 0
DWIDTH 4 0
BBX 4 7 0 0
BITMAP
10
14
69
04
08
08
08
ENDCHAR
STARTCHAR daggerdbl
ENCODING 8225
SWIDTH 375 0
DWIDTH 4 0
BBX 6 8 -1 0
BITMAP
0800
0500
1640
5650
6A80
0200
0200
0200
ENDCHAR
STARTCHAR bullet
ENCODING 8226
SWIDTH 341 0
DWIDTH 4 0
BBX 2 2 1 2
BITMAP
60
B0
ENDCHAR
STARTCHAR ellipsis
ENCODING 8230
SWIDTH 612 0
DWIDTH 7 0
BBX 7 2 0 0
BITMAP
6334
6324
ENDCHAR
STARTCHAR guilsinglleft
ENCODING 8249
SWIDTH 487 0
DWIDTH 5 0
BBX 5 5 0 0
BITMAP
0040
0640
1400
A000
5A40
ENDCHAR
STARTCHAR guilsinglright
ENCODING 8250
SWIDTH 403 0
DWIDTH 4 0
BBX 5 5 0 0
BITMAP
6000
0A40
0200
1800
5000
ENDCHAR
STARTCHAR fraction
ENCODING 8260
SWIDTH 309 0
DWIDTH 3 0
BBX 3 8 0 0
BITMAP
04
08
08
14
20
20
50
80
ENDCHAR
STARTCHAR Euro
ENCODING 8364
SWIDTH 741 0
DWIDTH 8 0
BBX 8 8 0 0
BITMAP
0018
0090
6BE0
4800
1A90
5800
0800
06A9
ENDCHAR
STARTCHAR trademark
ENCODING 8482
SWIDTH 1116 0
DWIDTH 12 0
BBX 12 7 0 0
BITMAP
6A9501
02070A
0202A9
014202
014202
018202
008102
ENDCHAR
STARTCHAR minus
ENCODING 8722
SWIDTH 287 0
DWIDTH 3 0
BBX 3 2 0 2
BITMAP
54
54
ENDCHAR
STARTCHAR commaaccent
ENCODING 63171
SWIDTH 375 0
DWIDTH 4 0
BBX 1 3 1 -4
BITMAP
80
80
40
ENDCHAR
STARTCHAR fi
ENCODING 64257
SWIDTH 551 0
DWIDTH 6 0
BBX 5 8 0 0
BITMAP
0A00
2180
1100
2100
7A40
2540
0980
0980
ENDCHAR
STARTCHAR fl
ENCODING 64258
SWIDTH 723 0
DWIDTH 8 0
BBX 5 8 0 0
BITMAP
0A00
2080
1200
2200
7A40
2640
0A40
0A00
ENDCHAR
STARTCHAR .notdef
ENCODING -1
SWIDTH 375 0
DWIDTH 4 0
BBX 1 1 0 0
BITMAP
00
ENDCHAR
STARTCHAR .null
ENCODING -1
SWIDTH 0 0
DWIDTH 0 0
BBX 1 1 0 0
BITMAP
00
ENDCHAR
STARTCHAR nonmarkingreturn
ENCODING -1
SWIDTH 375 0
DWIDTH 4 0
BBX 1 1 0 0
BITMAP
00
ENDCHAR
ENDFONT
